<?xml version="1.0" encoding="utf-8"?>
<!-- Generator: Adobe Illustrator 26.2.1, SVG Export Plug-In . SVG Version: 6.00 Build 0)  -->
<svg version="1.1" id="Layer_1" xmlns="http://www.w3.org/2000/svg" xmlns:xlink="http://www.w3.org/1999/xlink" x="0px" y="0px"
	 viewBox="0 0 48 48" style="enable-background:new 0 0 48 48;" xml:space="preserve">
<style type="text/css">
	.st0{fill:#FFFFFF;}
</style>
<path class="st0" d="M7,38c-0.8,0-1.5-0.3-2.1-0.9S4,35.8,4,35V13c0-0.8,0.3-1.5,0.9-2.1C5.5,10.3,6.2,10,7,10h34
	c0.8,0,1.5,0.3,2.1,0.9c0.6,0.6,0.9,1.3,0.9,2.1v22c0,0.8-0.3,1.5-0.9,2.1C42.5,37.7,41.8,38,41,38H7z M7,35h34V13H7V35z M15,31.8
	h18v-3H15V31.8z M10.2,25.5h3v-3h-3V25.5z M16.4,25.5h3v-3h-3V25.5z M22.5,25.5h3v-3h-3V25.5z M28.7,25.5h3v-3h-3V25.5z M34.9,25.5
	h3v-3h-3V25.5z M10.2,19.2h3v-3h-3V19.2z M16.4,19.2h3v-3h-3V19.2z M22.5,19.2h3v-3h-3V19.2z M28.7,19.2h3v-3h-3V19.2z M34.9,19.2h3
	v-3h-3V19.2z M7,35V13V35z"/>
</svg>
