<?xml version="1.0" encoding="utf-8"?>
<!-- Generator: Adobe Illustrator 26.2.1, SVG Export Plug-In . SVG Version: 6.00 Build 0)  -->
<svg version="1.1" id="Layer_1" xmlns="http://www.w3.org/2000/svg" xmlns:xlink="http://www.w3.org/1999/xlink" x="0px" y="0px"
	 viewBox="0 0 48 48" style="enable-background:new 0 0 48 48;" xml:space="preserve">
<style type="text/css">
	.st0{fill:#FFFFFF;}
</style>
<path class="st0" d="M38.6,16.2l-2.2-5l-5.2-2.3l5.2-2.2l2.2-4.8l2.1,4.8L46,8.9l-5.2,2.3L38.6,16.2z M38.6,46l-2.2-4.8L31.2,39
	l5.2-2.2l2.2-5.1l2.1,5.1L46,39l-5.2,2.2L38.6,46z M16.6,38.3l-4.6-9.8L2,24l10.1-4.5l4.6-9.8l4.7,9.8l10,4.5l-10,4.5L16.6,38.3z
	 M16.6,30.9l2.4-4.8L24,24l-4.9-2.1L16.6,17l-2.3,4.8L9.4,24l4.9,2.1L16.6,30.9z"/>
</svg>
