<?xml version="1.0" encoding="utf-8"?>
<!-- Generator: Adobe Illustrator 26.2.1, SVG Export Plug-In . SVG Version: 6.00 Build 0)  -->
<svg version="1.1" id="Layer_1" xmlns="http://www.w3.org/2000/svg" xmlns:xlink="http://www.w3.org/1999/xlink" x="0px" y="0px"
	 viewBox="0 0 48 48" style="enable-background:new 0 0 48 48;" xml:space="preserve">
<style type="text/css">
	.st0{fill:#FFFFFF;}
</style>
<path class="st0" d="M7.1,40c-0.8,0-1.5-0.3-2.1-0.9S4.1,37.8,4.1,37V11c0-0.8,0.3-1.5,0.9-2.1C5.6,8.3,6.2,8,7.1,8h14l3,3h17
	c0.8,0,1.5,0.3,2.1,0.9c0.6,0.6,0.9,1.3,0.9,2.1v23c0,0.8-0.3,1.5-0.9,2.1S41.8,40,41,40H7.1z M7.1,11v26h34V14H22.8l-3-3H7.1z
	 M7.1,11v26V11z"/>
</svg>
