<?xml version="1.0" encoding="utf-8"?>
<!-- Generator: Adobe Illustrator 26.2.1, SVG Export Plug-In . SVG Version: 6.00 Build 0)  -->
<svg version="1.1" id="Layer_1" xmlns="http://www.w3.org/2000/svg" xmlns:xlink="http://www.w3.org/1999/xlink" x="0px" y="0px"
	 viewBox="0 0 48 48" style="enable-background:new 0 0 48 48;" xml:space="preserve">
<style type="text/css">
	.st0{fill:#FFFFFF;}
</style>
<path class="st0" d="M24,46l-6-6H9c-0.8,0-1.5-0.3-2.1-0.9S6,37.8,6,37V7c0-0.8,0.3-1.5,0.9-2.1S8.2,4,9,4h30c0.8,0,1.5,0.3,2.1,0.9
	S42,6.2,42,7v30c0,0.8-0.3,1.5-0.9,2.1S39.8,40,39,40h-9L24,46z M9,37h10.2l4.8,4.8l4.8-4.8H39V7H9V37z M9,7v30V7z M23.9,33.1
	c0.5,0,1-0.2,1.3-0.6c0.4-0.4,0.5-0.8,0.5-1.4c0-0.5-0.2-1-0.6-1.3s-0.8-0.5-1.3-0.5c-0.5,0-1,0.2-1.3,0.6c-0.4,0.4-0.5,0.8-0.5,1.4
	c0,0.5,0.2,1,0.6,1.3S23.3,33.1,23.9,33.1z M25.1,25.7c0-1,0.2-1.9,0.5-2.5c0.3-0.7,0.9-1.4,1.7-2.2c1.1-1.1,1.9-2.1,2.3-2.9
	s0.6-1.7,0.6-2.7c0-1.8-0.6-3.2-1.7-4.2c-1.1-1-2.7-1.5-4.6-1.5c-1.7,0-3.2,0.4-4.4,1.2c-1.2,0.8-2.1,1.9-2.7,3.4l2.7,1.1
	c0.5-0.9,1.1-1.6,1.8-2.1s1.6-0.7,2.6-0.7c1.1,0,1.9,0.3,2.5,0.8s0.9,1.3,0.9,2.2c0,0.7-0.2,1.3-0.5,1.9s-1,1.3-1.9,2.2
	c-1.2,1.2-2,2.2-2.3,3c-0.3,0.8-0.5,1.9-0.5,3.1H25.1z"/>
</svg>
